<mxfile host="app.diagrams.net" agent="Mozilla/5.0 (Windows NT 10.0; Win64; x64) AppleWebKit/537.36 (KHTML, like Gecko) Chrome/133.0.0.0 Safari/537.36" version="26.0.14">
  <diagram name="PÃ¡gina-1" id="i1J8mxdOwmzUWH0M3uUI">
    <mxGraphModel dx="873" dy="1629" grid="1" gridSize="10" guides="1" tooltips="1" connect="1" arrows="1" fold="1" page="1" pageScale="1" pageWidth="827" pageHeight="1169" math="0" shadow="0">
      <root>
        <mxCell id="0" />
        <mxCell id="1" parent="0" />
        <mxCell id="4IjsowWvT9HadGBhLfMP-2" value="" style="rounded=0;whiteSpace=wrap;html=1;" vertex="1" parent="1">
          <mxGeometry x="350" y="210" width="120" height="60" as="geometry" />
        </mxCell>
        <mxCell id="4IjsowWvT9HadGBhLfMP-3" value="" style="rounded=0;whiteSpace=wrap;html=1;" vertex="1" parent="1">
          <mxGeometry x="40" y="-420" width="760" height="390" as="geometry" />
        </mxCell>
        <mxCell id="4IjsowWvT9HadGBhLfMP-5" value="" style="rounded=0;whiteSpace=wrap;html=1;" vertex="1" parent="1">
          <mxGeometry x="40" y="-130" width="160" height="100" as="geometry" />
        </mxCell>
        <mxCell id="4IjsowWvT9HadGBhLfMP-6" value="" style="shape=or;whiteSpace=wrap;html=1;" vertex="1" parent="1">
          <mxGeometry x="40" y="-255" width="30" height="60" as="geometry" />
        </mxCell>
        <mxCell id="4IjsowWvT9HadGBhLfMP-16" value="" style="rounded=0;whiteSpace=wrap;html=1;" vertex="1" parent="1">
          <mxGeometry x="40" y="-420" width="160" height="100" as="geometry" />
        </mxCell>
        <mxCell id="4IjsowWvT9HadGBhLfMP-21" value="" style="line;strokeWidth=2;html=1;" vertex="1" parent="1">
          <mxGeometry x="300" y="-330" width="490" height="10" as="geometry" />
        </mxCell>
        <mxCell id="4IjsowWvT9HadGBhLfMP-22" value="" style="line;strokeWidth=2;html=1;" vertex="1" parent="1">
          <mxGeometry x="300" y="-140" width="500" height="10" as="geometry" />
        </mxCell>
      </root>
    </mxGraphModel>
  </diagram>
</mxfile>
